{"title":"The Tale Of Zatoichi (1962) CC 720p Bluray Ep-1 X265--EG","uid":15632154,"size":430391464,"categoryP":"video","categoryS":"movies","magnet":"?xt=urn:btih:28ca8c21453ab70a6c5183815d67c6b2be09a386&amp;dn=The+Tale+Of+Zatoichi+%281962%29+CC+720p+Bluray+Ep-1+X265--EG&amp;tr=udp%3A%2F%2Ftracker.leechers-paradise.org%3A6969&amp;tr=udp%3A%2F%2Fzer0day.ch%3A1337&amp;tr=udp%3A%2F%2Fopen.demonii.com%3A1337&amp;tr=udp%3A%2F%2Ftracker.coppersurfer.tk%3A6969&amp;tr=udp%3A%2F%2Fexodus.desync.com%3A6969","seeders":1,"leechers":0,"uploader":"wasifa","files":1,"time":1471967298,"description":"General\r\nFormat                                   : Matroska\r\nFormat version                           : Version 2\r\nFile size                                : 410 MiB\r\nDuration                                 : 1 h 36 min\r\nOverall bit rate                         : 596 kb/s\r\nEncoded date                             : UTC \r\nWriting application                      : HandBrake 0.10.2 2015060900\r\nWriting library                          : Lavf55.12.0 / Lavf55.12.0\r\n\r\nVideo\r\nID                                       : 1\r\nFormat                                   : HEVC\r\nFormat/Info                              : High Efficiency Video Coding\r\nFormat profile                           :   @Main\r\nCodec ID                                 : V_MPEGH/ISO/HEVC\r\nDuration                                 : 1 h 36 min\r\nBit rate                                 : 488 kb/s\r\nWidth                                    : 1 280 pixels\r\nHeight                                   : 538 pixels\r\nDisplay aspect ratio                     : 2.40:1\r\nFrame rate mode                          : Constant\r\nFrame rate                               : 23.976 (23976/1000) FPS\r\nColor space                              : YUV\r\nChroma subsampling                       : 4:2:0\r\nBit depth                                : 8 bits\r\nBits/(Pixel*Frame)                       : 0.030\r\nStream size                              : 336 MiB (82%)\r\nWriting library                          : x265 1.5:[Windows][GCC 4.7.0][32 bit]\r\nEncoding settings                        : wpp / ctu=32 / tu-intra-depth=1 / tu-inter-depth=1 / me=1 / subme=1 / merange=44 / no-rect / no-amp / max-merge=2 / temporal-mvp / early-skip / no-fast-cbf / rdpenalty=0 / no-tskip / no-tskip-fast / strong-intra-smoothing / no-lossless / no-cu-lossless / no-constrained-intra / fast-intra / open-gop / interlace=0 / keyint=240 / min-keyint=24 / scenecut=40 / rc-lookahead=10 / bframes=4 / bframe-bias=0 / b-adapt=0 / ref=1 / no-weightp / no-weightb / aq-mode=0 / aq-strength=0.00 / cbqpoffs=0 / crqpoffs=0 / rd=2 / psy-rd=0.30 / psy-rdoq=0.00 / signhide / lft / no-sao / no-sao-non-deblock / b-pyramid / no-cutree / rc=abr / bitrate=509 / qcomp=0.60 / qpmin=0 / qpmax=51 / qpstep=4 / ipratio=1.40 / pbratio=1.30\r\nDefault                                  : Yes\r\nForced                                   : No\r\nColor range                              : Limited\r\nColor primaries                          : BT.709\r\nTransfer characteristics                 : BT.709\r\nMatrix coefficients                      : BT.709\r\n\r\nAudio\r\nID                                       : 2\r\nFormat                                   : AC-3\r\nFormat/Info                              : Audio Coding 3\r\nMode extension                           : CM (complete main)\r\nFormat settings, Endianness              : Big\r\nCodec ID                                 : A_AC3\r\nDuration                                 : 1 h 36 min\r\nBit rate mode                            : Constant\r\nBit rate                                 : 96.0 kb/s\r\nChannel(s)                               : 2 channels\r\nChannel positions                        : Front: L R\r\nSampling rate                            : 48.0 kHz\r\nFrame rate                               : 31.250 FPS (1536 spf)\r\nCompression mode                         : Lossy\r\nDelay relative to video                  : -5 ms\r\nStream size                              : 66.2 MiB (16%)\r\nTitle                                    : Stereo\r\nDefault                                  : Yes\r\nForced                                   : No\r\n\r\nText\r\nID                                       : 3\r\nFormat                                   : VobSub\r\nCodec ID                                 : S_VOBSUB\r\nCodec ID/Info                            : Picture based subtitle format used on DVDs\r\nLanguage                                 : English\r\nDefault                                  : Yes\r\nForced                                   : No","torrent":{"xt":"urn:btih:28ca8c21453ab70a6c5183815d67c6b2be09a386","amp;dn":"The+Tale+Of+Zatoichi+%281962%29+CC+720p+Bluray+Ep-1+X265--EG","amp;tr":["udp%3A%2F%2Ftracker.leechers-paradise.org%3A6969","udp%3A%2F%2Fzer0day.ch%3A1337","udp%3A%2F%2Fopen.demonii.com%3A1337","udp%3A%2F%2Ftracker.coppersurfer.tk%3A6969","udp%3A%2F%2Fexodus.desync.com%3A6969"],"infoHash":"28ca8c21453ab70a6c5183815d67c6b2be09a386","infoHashBuffer":{"type":"Buffer","data":[40,202,140,33,69,58,183,10,108,81,131,129,93,103,198,178,190,9,163,134]},"announce":[],"urlList":[]}}